<svg width="145" height="30" viewBox="0 0 145 30" fill="none" xmlns="http://www.w3.org/2000/svg">
<path d="M59.88 7.88449V22.8823H57.6293V11.4607L52.8932 22.8801H50.9868L46.2507 11.4607V22.8801H44V7.88449H47.1071L51.9916 19.6051L56.8804 7.88449H59.88Z" fill="#0D2836"/>
<path d="M66.501 11.7189C67.8157 11.7189 68.8851 12.0611 69.7157 12.7475C70.5441 13.4339 70.9573 14.4194 70.9573 15.704V22.8823H68.7065V21.2534C67.8071 22.482 66.5354 23.0953 64.8936 23.0953C63.85 23.0953 63 22.8156 62.3438 22.2604C61.6853 21.7031 61.3583 20.9607 61.3583 20.0312C61.3583 18.9596 61.737 18.157 62.4944 17.6212C63.2518 17.0854 64.2158 16.754 65.3863 16.6249L67.508 16.4098C68.3084 16.3388 68.7087 15.9816 68.7087 15.3382C68.7087 14.811 68.5043 14.3893 68.0976 14.0751C67.6909 13.7609 67.1572 13.6039 66.501 13.6039C65.8447 13.6039 65.2615 13.776 64.7968 14.1181C64.332 14.4603 64.0372 14.9616 63.9081 15.6179L61.6789 15.0821C61.879 14.0536 62.4148 13.2359 63.2862 12.6291C64.1577 12.0223 65.2293 11.7189 66.501 11.7189ZM65.3863 21.2749C66.3138 21.2749 67.0991 20.965 67.7425 20.3432C68.3859 19.7213 68.7065 18.9962 68.7065 18.1678V17.7396C68.5215 17.9117 68.1062 18.0322 67.465 18.1032L65.3863 18.3614C64.8441 18.4324 64.4116 18.5938 64.0888 18.8434C63.7682 19.093 63.6068 19.433 63.6068 19.8612C63.6068 20.2894 63.7682 20.6337 64.0888 20.8897C64.4095 21.1479 64.842 21.2749 65.3863 21.2749Z" fill="#0D2836"/>
<path d="M73.5695 13.9266H71.2348V11.9341H73.5695V8.37724L75.8203 7.66931V11.9341H78.9059V13.9266H75.8203V18.9833C75.8203 19.6546 75.9709 20.1409 76.27 20.44C76.5691 20.7391 77.0489 20.8897 77.7052 20.8897H78.9059V22.8823H77.7052C76.2915 22.8823 75.2479 22.553 74.5765 21.8968C73.9052 21.2405 73.5695 20.2334 73.5695 18.8757V13.9266Z" fill="#0D2836"/>
<path d="M85.1632 11.7189C86.919 11.7189 88.3478 12.3472 89.4474 13.6039C90.5469 14.8605 90.9966 16.3818 90.7965 18.1678H81.7333C81.8904 19.0543 82.297 19.7708 82.9555 20.3217C83.6118 20.8725 84.4058 21.1458 85.3332 21.1458C86.0476 21.1458 86.6866 20.9715 87.2504 20.6208C87.8142 20.27 88.2531 19.7966 88.5673 19.1963L90.4522 20.0312C89.9659 20.9607 89.2731 21.7031 88.3736 22.2604C87.4742 22.8177 86.437 23.0953 85.2665 23.0953C83.6225 23.0953 82.2454 22.553 81.1308 21.4664C80.0162 20.3819 79.4589 19.0306 79.4589 17.4168C79.4589 15.803 80.0054 14.4495 81.0985 13.3564C82.1916 12.2633 83.5451 11.7168 85.1589 11.7168L85.1632 11.7189ZM85.1632 13.6684C84.3348 13.6684 83.6161 13.9223 83.0093 14.4301C82.4025 14.938 81.998 15.5986 81.7978 16.4119H88.5264C88.3414 15.5986 87.9433 14.938 87.3365 14.4301C86.7297 13.9223 86.0045 13.6684 85.161 13.6684H85.1632Z" fill="#0D2836"/>
<path d="M94.5685 11.9341V13.4984C95.0548 12.8271 95.6767 12.3343 96.432 12.0202C97.1894 11.706 97.9963 11.6479 98.8527 11.848V13.9912C97.6671 13.662 96.6558 13.7653 95.8209 14.301C94.986 14.8368 94.5664 15.633 94.5664 16.6895V22.8823H92.3156V11.9341H94.5685Z" fill="#0D2836"/>
<path d="M106.632 22.9768H101V7.92968H106.632C108.824 7.92968 110.644 8.65337 112.092 10.1008C113.554 11.5338 114.284 13.318 114.284 15.4532C114.284 17.5885 113.554 19.3798 112.092 20.8272C110.644 22.2603 108.824 22.9768 106.632 22.9768ZM103.386 10.0578V20.8487H106.46C108.022 20.8487 109.305 20.34 110.308 19.3225C111.325 18.2907 111.834 17.0009 111.834 15.4532C111.834 13.8912 111.325 12.6014 110.308 11.584C109.305 10.5665 108.022 10.0578 106.46 10.0578H103.386Z" fill="#0D2836"/>
<path d="M120.901 11.7774C122.22 11.7774 123.295 12.1214 124.126 12.8092C124.957 13.4971 125.372 14.4859 125.372 15.7757V22.9768H123.115V21.3431C122.213 22.5755 120.937 23.1917 119.289 23.1917C118.243 23.1917 117.39 22.9123 116.731 22.3534C116.072 21.7945 115.742 21.0493 115.742 20.1178C115.742 19.043 116.122 18.2405 116.882 17.7103C117.641 17.1657 118.608 16.829 119.784 16.7L121.912 16.485C122.714 16.4134 123.115 16.0551 123.115 15.4102C123.115 14.88 122.908 14.4573 122.492 14.142C122.091 13.8267 121.561 13.6691 120.901 13.6691C120.228 13.6691 119.655 13.841 119.182 14.185C118.723 14.5289 118.429 15.0305 118.3 15.6897L116.065 15.1523C116.265 14.1205 116.803 13.3036 117.677 12.7018C118.551 12.0855 119.626 11.7774 120.901 11.7774ZM119.784 21.3646C120.715 21.3646 121.503 21.0565 122.148 20.4403C122.793 19.8097 123.115 19.0789 123.115 18.2477V17.8178C122.929 17.9897 122.513 18.1116 121.869 18.1832L119.784 18.4412C119.239 18.5128 118.802 18.6776 118.472 18.9356C118.157 19.1792 117.999 19.5159 117.999 19.9459C117.999 20.3758 118.157 20.7197 118.472 20.9777C118.802 21.2356 119.239 21.3646 119.784 21.3646Z" fill="#0D2836"/>
<path d="M128.639 13.9915H126.296V11.9924H128.639V8.42408L130.896 7.71472V11.9924H133.992V13.9915H130.896V19.0645C130.896 19.7381 131.047 20.2253 131.348 20.5263C131.649 20.8272 132.129 20.9777 132.788 20.9777H133.992V22.9768H132.788C131.369 22.9768 130.323 22.6472 129.65 21.988C128.976 21.3288 128.639 20.3185 128.639 18.9571V13.9915Z" fill="#0D2836"/>
<path d="M140.529 11.7774C141.847 11.7774 142.922 12.1214 143.753 12.8092C144.584 13.4971 145 14.4859 145 15.7757V22.9768H142.743V21.3431C141.84 22.5755 140.565 23.1917 138.917 23.1917C137.871 23.1917 137.018 22.9123 136.359 22.3534C135.699 21.7945 135.37 21.0493 135.37 20.1178C135.37 19.043 135.75 18.2405 136.509 17.7103C137.269 17.1657 138.236 16.829 139.411 16.7L141.539 16.485C142.342 16.4134 142.743 16.0551 142.743 15.4102C142.743 14.88 142.535 14.4573 142.12 14.142C141.718 13.8267 141.188 13.6691 140.529 13.6691C139.855 13.6691 139.282 13.841 138.809 14.185C138.351 14.5289 138.057 15.0305 137.928 15.6897L135.692 15.1523C135.893 14.1205 136.43 13.3036 137.304 12.7018C138.179 12.0855 139.253 11.7774 140.529 11.7774ZM139.411 21.3646C140.343 21.3646 141.131 21.0565 141.776 20.4403C142.42 19.8097 142.743 19.0789 142.743 18.2477V17.8178C142.557 17.9897 142.141 18.1116 141.496 18.1832L139.411 18.4412C138.867 18.5128 138.429 18.6776 138.1 18.9356C137.785 19.1792 137.627 19.5159 137.627 19.9459C137.627 20.3758 137.785 20.7197 138.1 20.9777C138.429 21.2356 138.867 21.3646 139.411 21.3646Z" fill="#0D2836"/>
<path d="M21.8176 0V9.5441H19.491V3.53029L16.9454 9.5441H15.0546L12.509 3.53029V9.5441H10.1824V0H13.4106L16.0717 6.23212L18.7347 0H21.8176Z" fill="#FF5E32"/>
<path d="M10.1824 30V20.454H12.509V26.4678L15.0546 20.454H16.9454L19.491 26.4678V20.454H21.8176V30H18.5894L15.9283 23.7679L13.2673 30H10.1824Z" fill="#FF5E32"/>
<path d="M32 20.454L21.8176 20.454L21.8176 18.2728H28.2324L21.8176 15.8863V14.1137L28.2324 11.7272H21.8176V9.54597H32V12.5725L25.3524 15.0672L32 17.5619V20.454Z" fill="#FF5E32"/>
<path d="M0 9.5441L10.1824 9.5441V11.7253H3.76763L10.1824 14.1118V15.8844L3.76763 18.2709H10.1824V20.4522H0V17.4257L6.64759 14.931L0 12.4362V9.5441Z" fill="#FF5E32"/>
<path d="M10.1824 9.5441V20.454H21.8196V9.5441L10.1824 9.5441ZM19.491 18.2709H12.509V11.7272H19.491V18.2728V18.2709Z" fill="#FF5E32"/>
</svg>
